<svg width="346" height="79" viewBox="0 0 346 79" fill="none" xmlns="http://www.w3.org/2000/svg">
<path d="M5.78957 29H2.82531V6.52101H5.78957V29ZM13.4781 12.2951L13.5708 14.3948C14.847 12.7892 16.5144 11.9864 18.573 11.9864C22.1033 11.9864 23.8839 13.978 23.9148 17.9612V29H21.0586V17.9458C21.0483 16.7415 20.7704 15.8512 20.2249 15.2748C19.6897 14.6985 18.8509 14.4103 17.7084 14.4103C16.782 14.4103 15.9689 14.6573 15.269 15.1513C14.5691 15.6454 14.0236 16.2938 13.6325 17.0966V29H10.7763V12.2951H13.4781ZM32.0974 8.25016V12.2951H35.2161V14.5029H32.0974V24.8624C32.0974 25.5314 32.2364 26.0357 32.5143 26.3754C32.7922 26.7048 33.2656 26.8694 33.9346 26.8694C34.264 26.8694 34.7169 26.8077 35.2932 26.6842V29C34.5419 29.2059 33.8111 29.3088 33.1009 29.3088C31.8246 29.3088 30.8623 28.9228 30.2139 28.1509C29.5654 27.3789 29.2412 26.2828 29.2412 24.8624V14.5029H26.1998V12.2951H29.2412V8.25016H32.0974ZM46.6408 14.858C46.2085 14.786 45.7402 14.7499 45.2359 14.7499C43.3626 14.7499 42.0915 15.5476 41.4225 17.143V29H38.5663V12.2951H41.3453L41.3916 14.225C42.3282 12.7326 43.656 11.9864 45.3748 11.9864C45.9306 11.9864 46.3526 12.0584 46.6408 12.2025V14.858ZM48.2156 20.4932C48.2156 18.8567 48.5346 17.3848 49.1728 16.0777C49.8212 14.7705 50.7167 13.7618 51.8592 13.0517C53.0119 12.3415 54.3242 11.9864 55.7961 11.9864C58.0707 11.9864 59.9079 12.7738 61.3077 14.3485C62.7178 15.9233 63.4229 18.0178 63.4229 20.6321V20.8328C63.4229 22.4591 63.1089 23.9206 62.4811 25.2175C61.8635 26.5041 60.9732 27.5076 59.8102 28.2281C58.6574 28.9485 57.3297 29.3088 55.8269 29.3088C53.5626 29.3088 51.7253 28.5214 50.3153 26.9466C48.9155 25.3719 48.2156 23.2876 48.2156 20.6939V20.4932ZM51.0872 20.8328C51.0872 22.6855 51.5144 24.1728 52.3686 25.2947C53.2332 26.4166 54.386 26.9775 55.8269 26.9775C57.2782 26.9775 58.431 26.4114 59.2852 25.2792C60.1395 24.1368 60.5667 22.5414 60.5667 20.4932C60.5667 18.6611 60.1292 17.179 59.2544 16.0468C58.3898 14.9043 57.237 14.3331 55.7961 14.3331C54.386 14.3331 53.2486 14.894 52.3841 16.0159C51.5195 17.1378 51.0872 18.7434 51.0872 20.8328ZM72.2693 25.1248L76.4069 12.2951H79.3249L73.3346 29H71.1577L65.1057 12.2951H68.0236L72.2693 25.1248ZM88.7889 29.3088C86.5246 29.3088 84.6822 28.5677 83.2618 27.0856C81.8414 25.5932 81.1312 23.6015 81.1312 21.1107V20.5858C81.1312 18.9287 81.4452 17.4517 82.073 16.1549C82.7112 14.8477 83.5963 13.8287 84.7285 13.098C85.871 12.3569 87.1061 11.9864 88.4338 11.9864C90.6056 11.9864 92.2935 12.7017 93.4978 14.1324C94.702 15.563 95.3041 17.6113 95.3041 20.277V21.4658H83.9874C84.0286 23.1126 84.5072 24.4455 85.4232 25.4645C86.3496 26.4732 87.5229 26.9775 88.9433 26.9775C89.952 26.9775 90.8063 26.7717 91.5062 26.36C92.2061 25.9483 92.8185 25.4027 93.3434 24.7234L95.088 26.0821C93.6882 28.2332 91.5885 29.3088 88.7889 29.3088ZM88.4338 14.3331C87.2811 14.3331 86.3136 14.7551 85.5313 15.5991C84.7491 16.4328 84.2653 17.6061 84.0801 19.1191H92.4479V18.903C92.3656 17.4517 91.9745 16.3298 91.2746 15.5373C90.5747 14.7345 89.6278 14.3331 88.4338 14.3331ZM106.698 14.858C106.266 14.786 105.797 14.7499 105.293 14.7499C103.42 14.7499 102.149 15.5476 101.48 17.143V29H98.6235V12.2951H101.402L101.449 14.225C102.385 12.7326 103.713 11.9864 105.432 11.9864C105.988 11.9864 106.41 12.0584 106.698 12.2025V14.858ZM113.985 8.25016V12.2951H117.104V14.5029H113.985V24.8624C113.985 25.5314 114.124 26.0357 114.402 26.3754C114.68 26.7048 115.153 26.8694 115.822 26.8694C116.152 26.8694 116.605 26.8077 117.181 26.6842V29C116.43 29.2059 115.699 29.3088 114.989 29.3088C113.712 29.3088 112.75 28.9228 112.102 28.1509C111.453 27.3789 111.129 26.2828 111.129 24.8624V14.5029H108.088V12.2951H111.129V8.25016H113.985ZM138.61 29C138.445 28.6706 138.312 28.084 138.209 27.24C136.881 28.6192 135.296 29.3088 133.454 29.3088C131.807 29.3088 130.453 28.8456 129.393 27.9193C128.343 26.9827 127.818 25.799 127.818 24.3683C127.818 22.6289 128.477 21.2806 129.795 20.3234C131.122 19.3559 132.985 18.8721 135.383 18.8721H138.162V17.5598C138.162 16.5614 137.864 15.7689 137.267 15.1822C136.67 14.5852 135.79 14.2868 134.627 14.2868C133.608 14.2868 132.754 14.5441 132.064 15.0587C131.374 15.5733 131.03 16.196 131.03 16.9268H128.158C128.158 16.0931 128.451 15.2903 129.038 14.5183C129.635 13.7361 130.438 13.1186 131.447 12.6657C132.465 12.2128 133.582 11.9864 134.797 11.9864C136.721 11.9864 138.229 12.4701 139.32 13.4376C140.411 14.3948 140.977 15.7174 141.019 17.4054V25.094C141.019 26.6276 141.214 27.8472 141.605 28.753V29H138.61ZM133.87 26.8231C134.766 26.8231 135.615 26.5915 136.418 26.1284C137.221 25.6652 137.802 25.0631 138.162 24.322V20.8946H135.924C132.424 20.8946 130.675 21.9187 130.675 23.9669C130.675 24.8624 130.973 25.5623 131.57 26.0666C132.167 26.571 132.934 26.8231 133.87 26.8231ZM144.817 20.5086C144.817 17.9046 145.419 15.8358 146.623 14.3022C147.827 12.7583 149.422 11.9864 151.409 11.9864C153.447 11.9864 155.037 12.7069 156.18 14.1478L156.319 12.2951H158.928V28.5986C158.928 30.76 158.284 32.4635 156.998 33.7089C155.722 34.9543 154.003 35.577 151.841 35.577C150.637 35.577 149.459 35.3196 148.306 34.805C147.153 34.2904 146.273 33.5853 145.666 32.6899L147.148 30.9762C148.373 32.4892 149.87 33.2457 151.641 33.2457C153.03 33.2457 154.111 32.8546 154.883 32.0723C155.665 31.2901 156.056 30.1888 156.056 28.7684V27.3326C154.914 28.6501 153.354 29.3088 151.378 29.3088C149.422 29.3088 147.837 28.5214 146.623 26.9466C145.419 25.3719 144.817 23.2259 144.817 20.5086ZM147.688 20.8328C147.688 22.7164 148.074 24.1985 148.846 25.2792C149.618 26.3497 150.699 26.8849 152.088 26.8849C153.889 26.8849 155.212 26.0666 156.056 24.4301V16.8033C155.181 15.2079 153.869 14.4103 152.119 14.4103C150.73 14.4103 149.644 14.9506 148.862 16.0314C148.079 17.1121 147.688 18.7126 147.688 20.8328ZM170.183 29.3088C167.918 29.3088 166.076 28.5677 164.656 27.0856C163.235 25.5932 162.525 23.6015 162.525 21.1107V20.5858C162.525 18.9287 162.839 17.4517 163.467 16.1549C164.105 14.8477 164.99 13.8287 166.122 13.098C167.265 12.3569 168.5 11.9864 169.828 11.9864C171.999 11.9864 173.687 12.7017 174.891 14.1324C176.096 15.563 176.698 17.6113 176.698 20.277V21.4658H165.381C165.422 23.1126 165.901 24.4455 166.817 25.4645C167.743 26.4732 168.917 26.9775 170.337 26.9775C171.346 26.9775 172.2 26.7717 172.9 26.36C173.6 25.9483 174.212 25.4027 174.737 24.7234L176.482 26.0821C175.082 28.2332 172.982 29.3088 170.183 29.3088ZM169.828 14.3331C168.675 14.3331 167.707 14.7551 166.925 15.5991C166.143 16.4328 165.659 17.6061 165.474 19.1191H173.842V18.903C173.759 17.4517 173.368 16.3298 172.668 15.5373C171.968 14.7345 171.021 14.3331 169.828 14.3331ZM182.719 12.2951L182.812 14.3948C184.088 12.7892 185.755 11.9864 187.814 11.9864C191.344 11.9864 193.125 13.978 193.156 17.9612V29H190.299V17.9458C190.289 16.7415 190.011 15.8512 189.466 15.2748C188.931 14.6985 188.092 14.4103 186.949 14.4103C186.023 14.4103 185.21 14.6573 184.51 15.1513C183.81 15.6454 183.264 16.2938 182.873 17.0966V29H180.017V12.2951H182.719ZM204.164 26.9775C205.183 26.9775 206.073 26.6687 206.834 26.0512C207.596 25.4336 208.018 24.6617 208.1 23.7353H210.802C210.751 24.6926 210.421 25.6034 209.814 26.468C209.207 27.3326 208.394 28.0222 207.375 28.5368C206.366 29.0515 205.296 29.3088 204.164 29.3088C201.889 29.3088 200.077 28.5523 198.729 27.0393C197.391 25.516 196.722 23.4369 196.722 20.802V20.3234C196.722 18.6971 197.021 17.251 197.617 15.985C198.214 14.719 199.069 13.7361 200.18 13.0362C201.302 12.3363 202.625 11.9864 204.148 11.9864C206.021 11.9864 207.576 12.5473 208.811 13.6692C210.056 14.7911 210.72 16.2475 210.802 18.0384H208.1C208.018 16.9577 207.606 16.0725 206.865 15.3829C206.135 14.683 205.229 14.3331 204.148 14.3331C202.697 14.3331 201.57 14.858 200.767 15.9078C199.974 16.9474 199.578 18.4553 199.578 20.4314V20.9718C199.578 22.8965 199.974 24.3786 200.767 25.4182C201.56 26.4577 202.692 26.9775 204.164 26.9775ZM219.479 24.8161L223.37 12.2951H226.426L219.711 31.5783C218.671 34.3573 217.019 35.7468 214.755 35.7468L214.214 35.7005L213.149 35.4998V33.1839L213.921 33.2457C214.888 33.2457 215.64 33.0501 216.175 32.659C216.721 32.2679 217.168 31.5526 217.518 30.513L218.151 28.8147L212.192 12.2951H215.31L219.479 24.8161ZM1.46669 63.5086C1.46669 60.9458 2.07395 58.8873 3.28848 57.3331C4.503 55.7686 6.09321 54.9864 8.05909 54.9864C10.0147 54.9864 11.5637 55.6554 12.7062 56.9934V48.2859H15.5624V72H12.9378L12.7988 70.2091C11.6563 71.6089 10.0661 72.3088 8.02821 72.3088C6.09321 72.3088 4.5133 71.5162 3.28848 69.9312C2.07395 68.3461 1.46669 66.2773 1.46669 63.7248V63.5086ZM4.32288 63.8328C4.32288 65.7267 4.714 67.2088 5.49624 68.2792C6.27847 69.3497 7.35919 69.8849 8.7384 69.8849C10.5499 69.8849 11.8725 69.0718 12.7062 67.4455V59.7724C11.8519 58.1977 10.5396 57.4103 8.76928 57.4103C7.36949 57.4103 6.27847 57.9506 5.49624 59.0314C4.714 60.1121 4.32288 61.7126 4.32288 63.8328ZM26.9408 72.3088C24.6765 72.3088 22.8341 71.5677 21.4137 70.0856C19.9933 68.5932 19.2831 66.6015 19.2831 64.1107V63.5858C19.2831 61.9287 19.5971 60.4517 20.2249 59.1549C20.8631 57.8477 21.7482 56.8287 22.8804 56.098C24.0229 55.3569 25.258 54.9864 26.5857 54.9864C28.7575 54.9864 30.4454 55.7017 31.6497 57.1324C32.8539 58.563 33.456 60.6113 33.456 63.277V64.4658H22.1393C22.1805 66.1126 22.6591 67.4455 23.5751 68.4645C24.5015 69.4732 25.6748 69.9775 27.0952 69.9775C28.1039 69.9775 28.9582 69.7717 29.6581 69.36C30.358 68.9483 30.9704 68.4027 31.4953 67.7234L33.2399 69.0821C31.8401 71.2332 29.7404 72.3088 26.9408 72.3088ZM26.5857 57.3331C25.433 57.3331 24.4655 57.7551 23.6832 58.5991C22.901 59.4328 22.4172 60.6061 22.232 62.1191H30.5998V61.903C30.5175 60.4517 30.1264 59.3298 29.4265 58.5373C28.7266 57.7345 27.7797 57.3331 26.5857 57.3331ZM46.5019 67.569C46.5019 66.7971 46.2085 66.2001 45.6218 65.7781C45.0455 65.3458 44.0316 64.9753 42.5804 64.6665C41.1394 64.3578 39.9918 63.9872 39.1375 63.5549C38.2935 63.1227 37.6657 62.608 37.254 62.0111C36.8526 61.4141 36.6519 60.7039 36.6519 59.8805C36.6519 58.5116 37.2283 57.3537 38.381 56.4067C39.5441 55.4598 41.0262 54.9864 42.8274 54.9864C44.7212 54.9864 46.2548 55.4753 47.4282 56.4531C48.6118 57.4309 49.2037 58.6814 49.2037 60.2047H46.332C46.332 59.4225 45.9975 58.7483 45.3285 58.1822C44.6698 57.6161 43.8361 57.3331 42.8274 57.3331C41.7879 57.3331 40.9748 57.5595 40.3881 58.0124C39.8014 58.4653 39.5081 59.0571 39.5081 59.7879C39.5081 60.4775 39.7808 60.9972 40.3263 61.3472C40.8718 61.6971 41.8548 62.0316 43.2751 62.3507C44.7058 62.6698 45.8637 63.0506 46.7489 63.4932C47.634 63.9358 48.2876 64.471 48.7096 65.0988C49.1419 65.7164 49.3581 66.4729 49.3581 67.3683C49.3581 68.8608 48.7611 70.0598 47.5671 70.9656C46.3732 71.8611 44.8242 72.3088 42.92 72.3088C41.582 72.3088 40.3984 72.072 39.3691 71.5986C38.3399 71.1251 37.5319 70.4664 36.9452 69.6224C36.3688 68.7681 36.0806 67.8469 36.0806 66.8589H38.9368C38.9883 67.8161 39.3691 68.5777 40.0793 69.1438C40.7998 69.6996 41.7467 69.9775 42.92 69.9775C44.0008 69.9775 44.8653 69.7614 45.5138 69.3291C46.1725 68.8865 46.5019 68.2998 46.5019 67.569ZM56.182 72H53.3258V55.2951H56.182V72ZM53.0943 50.8642C53.0943 50.401 53.2332 50.0099 53.5111 49.6908C53.7993 49.3718 54.2213 49.2122 54.7771 49.2122C55.3329 49.2122 55.7549 49.3718 56.0431 49.6908C56.3313 50.0099 56.4754 50.401 56.4754 50.8642C56.4754 51.3274 56.3313 51.7133 56.0431 52.0221C55.7549 52.3309 55.3329 52.4853 54.7771 52.4853C54.2213 52.4853 53.7993 52.3309 53.5111 52.0221C53.2332 51.7133 53.0943 51.3274 53.0943 50.8642ZM60.0881 63.5086C60.0881 60.9046 60.6902 58.8358 61.8944 57.3022C63.0986 55.7583 64.694 54.9864 66.6805 54.9864C68.7184 54.9864 70.3086 55.7069 71.4511 57.1478L71.59 55.2951H74.1992V71.5986C74.1992 73.76 73.5559 75.4635 72.2693 76.7089C70.9931 77.9543 69.2742 78.577 67.1127 78.577C65.9085 78.577 64.73 78.3196 63.5772 77.805C62.4245 77.2904 61.5445 76.5853 60.9372 75.6899L62.4193 73.9762C63.6442 75.4892 65.1417 76.2457 66.912 76.2457C68.3015 76.2457 69.3823 75.8546 70.1542 75.0723C70.9364 74.2901 71.3276 73.1888 71.3276 71.7684V70.3326C70.1851 71.6501 68.6258 72.3088 66.6496 72.3088C64.694 72.3088 63.1089 71.5214 61.8944 69.9466C60.6902 68.3719 60.0881 66.2259 60.0881 63.5086ZM62.9597 63.8328C62.9597 65.7164 63.3457 67.1985 64.1176 68.2792C64.8896 69.3497 65.9703 69.8849 67.3598 69.8849C69.161 69.8849 70.4836 69.0666 71.3276 67.4301V59.8033C70.4527 58.2079 69.1404 57.4103 67.3906 57.4103C66.0012 57.4103 64.9153 57.9506 64.133 59.0314C63.3508 60.1121 62.9597 61.7126 62.9597 63.8328ZM81.2239 55.2951L81.3165 57.3948C82.5928 55.7892 84.2602 54.9864 86.3187 54.9864C89.8491 54.9864 91.6297 56.978 91.6605 60.9612V72H88.8044V60.9458C88.7941 59.7415 88.5162 58.8512 87.9707 58.2748C87.4354 57.6985 86.5966 57.4103 85.4541 57.4103C84.5278 57.4103 83.7147 57.6573 83.0148 58.1513C82.3149 58.6454 81.7694 59.2938 81.3783 60.0966V72H78.5221V55.2951H81.2239ZM103.209 65.9634C103.209 64.8827 103.507 63.8894 104.104 62.9837C104.712 62.078 105.864 61.023 107.563 59.8187C106.564 58.6042 105.895 57.6264 105.556 56.8854C105.216 56.1443 105.046 55.4084 105.046 54.6776C105.046 52.969 105.55 51.631 106.559 50.6635C107.568 49.696 108.937 49.2122 110.666 49.2122C112.21 49.2122 113.486 49.6651 114.495 50.5709C115.503 51.4663 116.008 52.5985 116.008 53.9674C116.008 54.8732 115.776 55.712 115.313 56.4839C114.86 57.2456 114.062 58.0484 112.92 58.8924L111.268 60.1121L116.27 66.0869C116.97 64.7489 117.32 63.2616 117.32 61.6251H119.898C119.898 64.2497 119.265 66.4266 117.999 68.1557L121.211 72H117.783L116.286 70.2245C115.524 70.9038 114.628 71.4236 113.599 71.7839C112.58 72.1338 111.541 72.3088 110.481 72.3088C108.288 72.3088 106.528 71.7272 105.2 70.5642C103.873 69.4011 103.209 67.8675 103.209 65.9634ZM110.481 69.9775C111.994 69.9775 113.378 69.4011 114.634 68.2484L109.153 61.6868L108.643 62.0574C106.924 63.3234 106.065 64.6254 106.065 65.9634C106.065 67.1779 106.456 68.1506 107.238 68.8813C108.031 69.6121 109.112 69.9775 110.481 69.9775ZM107.902 54.585C107.902 55.573 108.509 56.8082 109.724 58.2903L111.546 57.0089C112.246 56.5148 112.724 56.0465 112.982 55.6039C113.239 55.1511 113.368 54.6055 113.368 53.9674C113.368 53.2778 113.11 52.7066 112.596 52.2537C112.081 51.7905 111.433 51.5589 110.65 51.5589C109.806 51.5589 109.137 51.8471 108.643 52.4235C108.149 52.9896 107.902 53.7101 107.902 54.585ZM130.628 63.5086C130.628 60.9458 131.235 58.8873 132.45 57.3331C133.665 55.7686 135.255 54.9864 137.221 54.9864C139.176 54.9864 140.725 55.6554 141.868 56.9934V48.2859H144.724V72H142.099L141.96 70.2091C140.818 71.6089 139.228 72.3088 137.19 72.3088C135.255 72.3088 133.675 71.5162 132.45 69.9312C131.235 68.3461 130.628 66.2773 130.628 63.7248V63.5086ZM133.484 63.8328C133.484 65.7267 133.876 67.2088 134.658 68.2792C135.44 69.3497 136.521 69.8849 137.9 69.8849C139.711 69.8849 141.034 69.0718 141.868 67.4455V59.7724C141.013 58.1977 139.701 57.4103 137.931 57.4103C136.531 57.4103 135.44 57.9506 134.658 59.0314C133.876 60.1121 133.484 61.7126 133.484 63.8328ZM152.274 72H149.417V55.2951H152.274V72ZM149.186 50.8642C149.186 50.401 149.325 50.0099 149.603 49.6908C149.891 49.3718 150.313 49.2122 150.869 49.2122C151.424 49.2122 151.846 49.3718 152.135 49.6908C152.423 50.0099 152.567 50.401 152.567 50.8642C152.567 51.3274 152.423 51.7133 152.135 52.0221C151.846 52.3309 151.424 52.4853 150.869 52.4853C150.313 52.4853 149.891 52.3309 149.603 52.0221C149.325 51.7133 149.186 51.3274 149.186 50.8642ZM156.18 63.5086C156.18 60.9046 156.782 58.8358 157.986 57.3022C159.19 55.7583 160.785 54.9864 162.772 54.9864C164.81 54.9864 166.4 55.7069 167.543 57.1478L167.682 55.2951H170.291V71.5986C170.291 73.76 169.647 75.4635 168.361 76.7089C167.085 77.9543 165.366 78.577 163.204 78.577C162 78.577 160.822 78.3196 159.669 77.805C158.516 77.2904 157.636 76.5853 157.029 75.6899L158.511 73.9762C159.736 75.4892 161.233 76.2457 163.004 76.2457C164.393 76.2457 165.474 75.8546 166.246 75.0723C167.028 74.2901 167.419 73.1888 167.419 71.7684V70.3326C166.277 71.6501 164.717 72.3088 162.741 72.3088C160.785 72.3088 159.2 71.5214 157.986 69.9466C156.782 68.3719 156.18 66.2259 156.18 63.5086ZM159.051 63.8328C159.051 65.7164 159.437 67.1985 160.209 68.2792C160.981 69.3497 162.062 69.8849 163.451 69.8849C165.252 69.8849 166.575 69.0666 167.419 67.4301V59.8033C166.544 58.2079 165.232 57.4103 163.482 57.4103C162.093 57.4103 161.007 57.9506 160.225 59.0314C159.442 60.1121 159.051 61.7126 159.051 63.8328ZM177.717 72H174.861V55.2951H177.717V72ZM174.629 50.8642C174.629 50.401 174.768 50.0099 175.046 49.6908C175.334 49.3718 175.756 49.2122 176.312 49.2122C176.868 49.2122 177.29 49.3718 177.578 49.6908C177.866 50.0099 178.01 50.401 178.01 50.8642C178.01 51.3274 177.866 51.7133 177.578 52.0221C177.29 52.3309 176.868 52.4853 176.312 52.4853C175.756 52.4853 175.334 52.3309 175.046 52.0221C174.768 51.7133 174.629 51.3274 174.629 50.8642ZM186.177 51.2502V55.2951H189.296V57.5029H186.177V67.8624C186.177 68.5314 186.316 69.0357 186.594 69.3754C186.872 69.7048 187.345 69.8694 188.015 69.8694C188.344 69.8694 188.797 69.8077 189.373 69.6842V72C188.622 72.2059 187.891 72.3088 187.181 72.3088C185.905 72.3088 184.942 71.9228 184.294 71.1509C183.645 70.3789 183.321 69.2828 183.321 67.8624V57.5029H180.28V55.2951H183.321V51.2502H186.177ZM202.959 72C202.795 71.6706 202.661 71.084 202.558 70.24C201.23 71.6192 199.645 72.3088 197.803 72.3088C196.156 72.3088 194.802 71.8456 193.742 70.9193C192.692 69.9827 192.168 68.799 192.168 67.3683C192.168 65.6289 192.826 64.2806 194.144 63.3234C195.471 62.3559 197.334 61.8721 199.733 61.8721H202.512V60.5598C202.512 59.5614 202.213 58.7689 201.616 58.1822C201.019 57.5852 200.139 57.2868 198.976 57.2868C197.957 57.2868 197.103 57.5441 196.413 58.0587C195.724 58.5733 195.379 59.196 195.379 59.9268H192.507C192.507 59.0931 192.801 58.2903 193.387 57.5183C193.984 56.7361 194.787 56.1186 195.796 55.6657C196.815 55.2128 197.931 54.9864 199.146 54.9864C201.071 54.9864 202.579 55.4701 203.67 56.4376C204.761 57.3948 205.327 58.7174 205.368 60.4054V68.094C205.368 69.6276 205.563 70.8472 205.954 71.753V72H202.959ZM198.22 69.8231C199.115 69.8231 199.964 69.5915 200.767 69.1284C201.57 68.6652 202.151 68.0631 202.512 67.322V63.8946H200.273C196.773 63.8946 195.024 64.9187 195.024 66.9669C195.024 67.8624 195.322 68.5623 195.919 69.0666C196.516 69.571 197.283 69.8231 198.22 69.8231ZM212.948 72H210.092V48.2859H212.948V72Z" fill="black"/>
<rect x="1.80664" y="38.7046" width="226.752" height="0.350168" fill="black"/>
</svg>
