<svg width="232" height="85" viewBox="0 0 232 85" fill="none" xmlns="http://www.w3.org/2000/svg">
<path d="M5.78957 29H2.82531V6.52101H5.78957V29ZM13.4781 12.2951L13.5708 14.3948C14.847 12.7892 16.5144 11.9864 18.573 11.9864C22.1033 11.9864 23.8839 13.978 23.9148 17.9612V29H21.0586V17.9458C21.0483 16.7415 20.7704 15.8512 20.2249 15.2748C19.6897 14.6985 18.8509 14.4103 17.7084 14.4103C16.782 14.4103 15.9689 14.6573 15.269 15.1513C14.5691 15.6454 14.0236 16.2938 13.6325 17.0966V29H10.7763V12.2951H13.4781ZM32.0974 8.25016V12.2951H35.2161V14.5029H32.0974V24.8624C32.0974 25.5314 32.2364 26.0357 32.5143 26.3754C32.7922 26.7048 33.2656 26.8694 33.9346 26.8694C34.264 26.8694 34.7169 26.8077 35.2932 26.6842V29C34.5419 29.2059 33.8111 29.3088 33.1009 29.3088C31.8246 29.3088 30.8623 28.9228 30.2139 28.1509C29.5654 27.3789 29.2412 26.2828 29.2412 24.8624V14.5029H26.1998V12.2951H29.2412V8.25016H32.0974ZM46.6408 14.858C46.2085 14.786 45.7402 14.7499 45.2359 14.7499C43.3626 14.7499 42.0915 15.5476 41.4225 17.143V29H38.5663V12.2951H41.3453L41.3916 14.225C42.3282 12.7326 43.656 11.9864 45.3748 11.9864C45.9306 11.9864 46.3526 12.0584 46.6408 12.2025V14.858ZM48.2156 20.4932C48.2156 18.8567 48.5346 17.3848 49.1728 16.0777C49.8212 14.7705 50.7167 13.7618 51.8592 13.0517C53.0119 12.3415 54.3242 11.9864 55.7961 11.9864C58.0707 11.9864 59.9079 12.7738 61.3077 14.3485C62.7178 15.9233 63.4229 18.0178 63.4229 20.6321V20.8328C63.4229 22.4591 63.1089 23.9206 62.4811 25.2175C61.8635 26.5041 60.9732 27.5076 59.8102 28.2281C58.6574 28.9485 57.3297 29.3088 55.8269 29.3088C53.5626 29.3088 51.7253 28.5214 50.3153 26.9466C48.9155 25.3719 48.2156 23.2876 48.2156 20.6939V20.4932ZM51.0872 20.8328C51.0872 22.6855 51.5144 24.1728 52.3686 25.2947C53.2332 26.4166 54.386 26.9775 55.8269 26.9775C57.2782 26.9775 58.431 26.4114 59.2852 25.2792C60.1395 24.1368 60.5667 22.5414 60.5667 20.4932C60.5667 18.6611 60.1292 17.179 59.2544 16.0468C58.3898 14.9043 57.237 14.3331 55.7961 14.3331C54.386 14.3331 53.2486 14.894 52.3841 16.0159C51.5195 17.1378 51.0872 18.7434 51.0872 20.8328ZM72.2693 25.1248L76.4069 12.2951H79.3249L73.3346 29H71.1577L65.1057 12.2951H68.0236L72.2693 25.1248ZM88.7889 29.3088C86.5246 29.3088 84.6822 28.5677 83.2618 27.0856C81.8414 25.5932 81.1312 23.6015 81.1312 21.1107V20.5858C81.1312 18.9287 81.4452 17.4517 82.073 16.1549C82.7112 14.8477 83.5963 13.8287 84.7285 13.098C85.871 12.3569 87.1061 11.9864 88.4338 11.9864C90.6056 11.9864 92.2935 12.7017 93.4978 14.1324C94.702 15.563 95.3041 17.6113 95.3041 20.277V21.4658H83.9874C84.0286 23.1126 84.5072 24.4455 85.4232 25.4645C86.3496 26.4732 87.5229 26.9775 88.9433 26.9775C89.952 26.9775 90.8063 26.7717 91.5062 26.36C92.2061 25.9483 92.8185 25.4027 93.3434 24.7234L95.088 26.0821C93.6882 28.2332 91.5885 29.3088 88.7889 29.3088ZM88.4338 14.3331C87.2811 14.3331 86.3136 14.7551 85.5313 15.5991C84.7491 16.4328 84.2653 17.6061 84.0801 19.1191H92.4479V18.903C92.3656 17.4517 91.9745 16.3298 91.2746 15.5373C90.5747 14.7345 89.6278 14.3331 88.4338 14.3331ZM106.698 14.858C106.266 14.786 105.797 14.7499 105.293 14.7499C103.42 14.7499 102.149 15.5476 101.48 17.143V29H98.6235V12.2951H101.402L101.449 14.225C102.385 12.7326 103.713 11.9864 105.432 11.9864C105.988 11.9864 106.41 12.0584 106.698 12.2025V14.858ZM113.985 8.25016V12.2951H117.104V14.5029H113.985V24.8624C113.985 25.5314 114.124 26.0357 114.402 26.3754C114.68 26.7048 115.153 26.8694 115.822 26.8694C116.152 26.8694 116.605 26.8077 117.181 26.6842V29C116.43 29.2059 115.699 29.3088 114.989 29.3088C113.712 29.3088 112.75 28.9228 112.102 28.1509C111.453 27.3789 111.129 26.2828 111.129 24.8624V14.5029H108.088V12.2951H111.129V8.25016H113.985ZM138.61 29C138.445 28.6706 138.312 28.084 138.209 27.24C136.881 28.6192 135.296 29.3088 133.454 29.3088C131.807 29.3088 130.453 28.8456 129.393 27.9193C128.343 26.9827 127.818 25.799 127.818 24.3683C127.818 22.6289 128.477 21.2806 129.795 20.3234C131.122 19.3559 132.985 18.8721 135.383 18.8721H138.162V17.5598C138.162 16.5614 137.864 15.7689 137.267 15.1822C136.67 14.5852 135.79 14.2868 134.627 14.2868C133.608 14.2868 132.754 14.5441 132.064 15.0587C131.374 15.5733 131.03 16.196 131.03 16.9268H128.158C128.158 16.0931 128.451 15.2903 129.038 14.5183C129.635 13.7361 130.438 13.1186 131.447 12.6657C132.465 12.2128 133.582 11.9864 134.797 11.9864C136.721 11.9864 138.229 12.4701 139.32 13.4376C140.411 14.3948 140.977 15.7174 141.019 17.4054V25.094C141.019 26.6276 141.214 27.8472 141.605 28.753V29H138.61ZM133.87 26.8231C134.766 26.8231 135.615 26.5915 136.418 26.1284C137.221 25.6652 137.802 25.0631 138.162 24.322V20.8946H135.924C132.424 20.8946 130.675 21.9187 130.675 23.9669C130.675 24.8624 130.973 25.5623 131.57 26.0666C132.167 26.571 132.934 26.8231 133.87 26.8231ZM144.817 20.5086C144.817 17.9046 145.419 15.8358 146.623 14.3022C147.827 12.7583 149.422 11.9864 151.409 11.9864C153.447 11.9864 155.037 12.7069 156.18 14.1478L156.319 12.2951H158.928V28.5986C158.928 30.76 158.284 32.4635 156.998 33.7089C155.722 34.9543 154.003 35.577 151.841 35.577C150.637 35.577 149.459 35.3196 148.306 34.805C147.153 34.2904 146.273 33.5853 145.666 32.6899L147.148 30.9762C148.373 32.4892 149.87 33.2457 151.641 33.2457C153.03 33.2457 154.111 32.8546 154.883 32.0723C155.665 31.2901 156.056 30.1888 156.056 28.7684V27.3326C154.914 28.6501 153.354 29.3088 151.378 29.3088C149.422 29.3088 147.837 28.5214 146.623 26.9466C145.419 25.3719 144.817 23.2259 144.817 20.5086ZM147.688 20.8328C147.688 22.7164 148.074 24.1985 148.846 25.2792C149.618 26.3497 150.699 26.8849 152.088 26.8849C153.889 26.8849 155.212 26.0666 156.056 24.4301V16.8033C155.181 15.2079 153.869 14.4103 152.119 14.4103C150.73 14.4103 149.644 14.9506 148.862 16.0314C148.079 17.1121 147.688 18.7126 147.688 20.8328ZM170.183 29.3088C167.918 29.3088 166.076 28.5677 164.656 27.0856C163.235 25.5932 162.525 23.6015 162.525 21.1107V20.5858C162.525 18.9287 162.839 17.4517 163.467 16.1549C164.105 14.8477 164.99 13.8287 166.122 13.098C167.265 12.3569 168.5 11.9864 169.828 11.9864C171.999 11.9864 173.687 12.7017 174.891 14.1324C176.096 15.563 176.698 17.6113 176.698 20.277V21.4658H165.381C165.422 23.1126 165.901 24.4455 166.817 25.4645C167.743 26.4732 168.917 26.9775 170.337 26.9775C171.346 26.9775 172.2 26.7717 172.9 26.36C173.6 25.9483 174.212 25.4027 174.737 24.7234L176.482 26.0821C175.082 28.2332 172.982 29.3088 170.183 29.3088ZM169.828 14.3331C168.675 14.3331 167.707 14.7551 166.925 15.5991C166.143 16.4328 165.659 17.6061 165.474 19.1191H173.842V18.903C173.759 17.4517 173.368 16.3298 172.668 15.5373C171.968 14.7345 171.021 14.3331 169.828 14.3331ZM182.719 12.2951L182.812 14.3948C184.088 12.7892 185.755 11.9864 187.814 11.9864C191.344 11.9864 193.125 13.978 193.156 17.9612V29H190.299V17.9458C190.289 16.7415 190.011 15.8512 189.466 15.2748C188.931 14.6985 188.092 14.4103 186.949 14.4103C186.023 14.4103 185.21 14.6573 184.51 15.1513C183.81 15.6454 183.264 16.2938 182.873 17.0966V29H180.017V12.2951H182.719ZM204.164 26.9775C205.183 26.9775 206.073 26.6687 206.834 26.0512C207.596 25.4336 208.018 24.6617 208.1 23.7353H210.802C210.751 24.6926 210.421 25.6034 209.814 26.468C209.207 27.3326 208.394 28.0222 207.375 28.5368C206.366 29.0515 205.296 29.3088 204.164 29.3088C201.889 29.3088 200.077 28.5523 198.729 27.0393C197.391 25.516 196.722 23.4369 196.722 20.802V20.3234C196.722 18.6971 197.021 17.251 197.617 15.985C198.214 14.719 199.069 13.7361 200.18 13.0362C201.302 12.3363 202.625 11.9864 204.148 11.9864C206.021 11.9864 207.576 12.5473 208.811 13.6692C210.056 14.7911 210.72 16.2475 210.802 18.0384H208.1C208.018 16.9577 207.606 16.0725 206.865 15.3829C206.135 14.683 205.229 14.3331 204.148 14.3331C202.697 14.3331 201.57 14.858 200.767 15.9078C199.974 16.9474 199.578 18.4553 199.578 20.4314V20.9718C199.578 22.8965 199.974 24.3786 200.767 25.4182C201.56 26.4577 202.692 26.9775 204.164 26.9775ZM219.479 24.8161L223.37 12.2951H226.426L219.711 31.5783C218.671 34.3573 217.019 35.7468 214.755 35.7468L214.214 35.7005L213.149 35.4998V33.1839L213.921 33.2457C214.888 33.2457 215.64 33.0501 216.175 32.659C216.721 32.2679 217.168 31.5526 217.518 30.513L218.151 28.8147L212.192 12.2951H215.31L219.479 24.8161Z" fill="white"/>
<path d="M3.46669 69.5086C3.46669 66.9458 4.07395 64.8873 5.28848 63.3331C6.503 61.7686 8.09321 60.9864 10.0591 60.9864C12.0147 60.9864 13.5637 61.6554 14.7062 62.9934V54.2859H17.5624V78H14.9378L14.7988 76.2091C13.6563 77.6089 12.0661 78.3088 10.0282 78.3088C8.09321 78.3088 6.5133 77.5162 5.28848 75.9312C4.07395 74.3461 3.46669 72.2773 3.46669 69.7248V69.5086ZM6.32288 69.8328C6.32288 71.7267 6.714 73.2088 7.49624 74.2792C8.27847 75.3497 9.35919 75.8849 10.7384 75.8849C12.5499 75.8849 13.8725 75.0718 14.7062 73.4455V65.7724C13.8519 64.1977 12.5396 63.4103 10.7693 63.4103C9.36949 63.4103 8.27847 63.9506 7.49624 65.0314C6.714 66.1121 6.32288 67.7126 6.32288 69.8328ZM28.9408 78.3088C26.6765 78.3088 24.8341 77.5677 23.4137 76.0856C21.9933 74.5932 21.2831 72.6015 21.2831 70.1107V69.5858C21.2831 67.9287 21.5971 66.4517 22.2249 65.1549C22.8631 63.8477 23.7482 62.8287 24.8804 62.098C26.0229 61.3569 27.258 60.9864 28.5857 60.9864C30.7575 60.9864 32.4454 61.7017 33.6497 63.1324C34.8539 64.563 35.456 66.6113 35.456 69.277V70.4658H24.1393C24.1805 72.1126 24.6591 73.4455 25.5751 74.4645C26.5015 75.4732 27.6748 75.9775 29.0952 75.9775C30.1039 75.9775 30.9582 75.7717 31.6581 75.36C32.358 74.9483 32.9704 74.4027 33.4953 73.7234L35.2399 75.0821C33.8401 77.2332 31.7404 78.3088 28.9408 78.3088ZM28.5857 63.3331C27.433 63.3331 26.4655 63.7551 25.6832 64.5991C24.901 65.4328 24.4172 66.6061 24.232 68.1191H32.5998V67.903C32.5175 66.4517 32.1264 65.3298 31.4265 64.5373C30.7266 63.7345 29.7797 63.3331 28.5857 63.3331ZM48.5019 73.569C48.5019 72.7971 48.2085 72.2001 47.6218 71.7781C47.0455 71.3458 46.0316 70.9753 44.5804 70.6665C43.1394 70.3578 41.9918 69.9872 41.1375 69.5549C40.2935 69.1227 39.6657 68.608 39.254 68.0111C38.8526 67.4141 38.6519 66.7039 38.6519 65.8805C38.6519 64.5116 39.2283 63.3537 40.381 62.4067C41.5441 61.4598 43.0262 60.9864 44.8274 60.9864C46.7212 60.9864 48.2548 61.4753 49.4282 62.4531C50.6118 63.4309 51.2037 64.6814 51.2037 66.2047H48.332C48.332 65.4225 47.9975 64.7483 47.3285 64.1822C46.6698 63.6161 45.8361 63.3331 44.8274 63.3331C43.7879 63.3331 42.9748 63.5595 42.3881 64.0124C41.8014 64.4653 41.5081 65.0571 41.5081 65.7879C41.5081 66.4775 41.7808 66.9972 42.3263 67.3472C42.8718 67.6971 43.8548 68.0316 45.2751 68.3507C46.7058 68.6698 47.8637 69.0506 48.7489 69.4932C49.634 69.9358 50.2876 70.471 50.7096 71.0988C51.1419 71.7164 51.3581 72.4729 51.3581 73.3683C51.3581 74.8608 50.7611 76.0598 49.5671 76.9656C48.3732 77.8611 46.8242 78.3088 44.92 78.3088C43.582 78.3088 42.3984 78.072 41.3691 77.5986C40.3399 77.1251 39.5319 76.4664 38.9452 75.6224C38.3688 74.7681 38.0806 73.8469 38.0806 72.8589H40.9368C40.9883 73.8161 41.3691 74.5777 42.0793 75.1438C42.7998 75.6996 43.7467 75.9775 44.92 75.9775C46.0008 75.9775 46.8653 75.7614 47.5138 75.3291C48.1725 74.8865 48.5019 74.2998 48.5019 73.569ZM58.182 78H55.3258V61.2951H58.182V78ZM55.0943 56.8642C55.0943 56.401 55.2332 56.0099 55.5111 55.6908C55.7993 55.3718 56.2213 55.2122 56.7771 55.2122C57.3329 55.2122 57.7549 55.3718 58.0431 55.6908C58.3313 56.0099 58.4754 56.401 58.4754 56.8642C58.4754 57.3274 58.3313 57.7133 58.0431 58.0221C57.7549 58.3309 57.3329 58.4853 56.7771 58.4853C56.2213 58.4853 55.7993 58.3309 55.5111 58.0221C55.2332 57.7133 55.0943 57.3274 55.0943 56.8642ZM62.0881 69.5086C62.0881 66.9046 62.6902 64.8358 63.8944 63.3022C65.0986 61.7583 66.694 60.9864 68.6805 60.9864C70.7184 60.9864 72.3086 61.7069 73.4511 63.1478L73.59 61.2951H76.1992V77.5986C76.1992 79.76 75.5559 81.4635 74.2693 82.7089C72.9931 83.9543 71.2742 84.577 69.1127 84.577C67.9085 84.577 66.73 84.3196 65.5772 83.805C64.4245 83.2904 63.5445 82.5853 62.9372 81.6899L64.4193 79.9762C65.6442 81.4892 67.1417 82.2457 68.912 82.2457C70.3015 82.2457 71.3823 81.8546 72.1542 81.0723C72.9364 80.2901 73.3276 79.1888 73.3276 77.7684V76.3326C72.1851 77.6501 70.6258 78.3088 68.6496 78.3088C66.694 78.3088 65.1089 77.5214 63.8944 75.9466C62.6902 74.3719 62.0881 72.2259 62.0881 69.5086ZM64.9597 69.8328C64.9597 71.7164 65.3457 73.1985 66.1176 74.2792C66.8896 75.3497 67.9703 75.8849 69.3598 75.8849C71.161 75.8849 72.4836 75.0666 73.3276 73.4301V65.8033C72.4527 64.2079 71.1404 63.4103 69.3906 63.4103C68.0012 63.4103 66.9153 63.9506 66.133 65.0314C65.3508 66.1121 64.9597 67.7126 64.9597 69.8328ZM83.2239 61.2951L83.3165 63.3948C84.5928 61.7892 86.2602 60.9864 88.3187 60.9864C91.8491 60.9864 93.6297 62.978 93.6605 66.9612V78H90.8044V66.9458C90.7941 65.7415 90.5162 64.8512 89.9707 64.2748C89.4354 63.6985 88.5966 63.4103 87.4541 63.4103C86.5278 63.4103 85.7147 63.6573 85.0148 64.1513C84.3149 64.6454 83.7694 65.2938 83.3783 66.0966V78H80.5221V61.2951H83.2239ZM105.209 71.9634C105.209 70.8827 105.507 69.8894 106.104 68.9837C106.712 68.078 107.864 67.023 109.563 65.8187C108.564 64.6042 107.895 63.6264 107.556 62.8854C107.216 62.1443 107.046 61.4084 107.046 60.6776C107.046 58.969 107.55 57.631 108.559 56.6635C109.568 55.696 110.937 55.2122 112.666 55.2122C114.21 55.2122 115.486 55.6651 116.495 56.5709C117.503 57.4663 118.008 58.5985 118.008 59.9674C118.008 60.8732 117.776 61.712 117.313 62.4839C116.86 63.2456 116.062 64.0484 114.92 64.8924L113.268 66.1121L118.27 72.0869C118.97 70.7489 119.32 69.2616 119.32 67.6251H121.898C121.898 70.2497 121.265 72.4266 119.999 74.1557L123.211 78H119.783L118.286 76.2245C117.524 76.9038 116.628 77.4236 115.599 77.7839C114.58 78.1338 113.541 78.3088 112.481 78.3088C110.288 78.3088 108.528 77.7272 107.2 76.5642C105.873 75.4011 105.209 73.8675 105.209 71.9634ZM112.481 75.9775C113.994 75.9775 115.378 75.4011 116.634 74.2484L111.153 67.6868L110.643 68.0574C108.924 69.3234 108.065 70.6254 108.065 71.9634C108.065 73.1779 108.456 74.1506 109.238 74.8813C110.031 75.6121 111.112 75.9775 112.481 75.9775ZM109.902 60.585C109.902 61.573 110.509 62.8082 111.724 64.2903L113.546 63.0089C114.246 62.5148 114.724 62.0465 114.982 61.6039C115.239 61.1511 115.368 60.6055 115.368 59.9674C115.368 59.2778 115.11 58.7066 114.596 58.2537C114.081 57.7905 113.433 57.5589 112.65 57.5589C111.806 57.5589 111.137 57.8471 110.643 58.4235C110.149 58.9896 109.902 59.7101 109.902 60.585ZM132.628 69.5086C132.628 66.9458 133.235 64.8873 134.45 63.3331C135.665 61.7686 137.255 60.9864 139.221 60.9864C141.176 60.9864 142.725 61.6554 143.868 62.9934V54.2859H146.724V78H144.099L143.96 76.2091C142.818 77.6089 141.228 78.3088 139.19 78.3088C137.255 78.3088 135.675 77.5162 134.45 75.9312C133.235 74.3461 132.628 72.2773 132.628 69.7248V69.5086ZM135.484 69.8328C135.484 71.7267 135.876 73.2088 136.658 74.2792C137.44 75.3497 138.521 75.8849 139.9 75.8849C141.711 75.8849 143.034 75.0718 143.868 73.4455V65.7724C143.013 64.1977 141.701 63.4103 139.931 63.4103C138.531 63.4103 137.44 63.9506 136.658 65.0314C135.876 66.1121 135.484 67.7126 135.484 69.8328ZM154.274 78H151.417V61.2951H154.274V78ZM151.186 56.8642C151.186 56.401 151.325 56.0099 151.603 55.6908C151.891 55.3718 152.313 55.2122 152.869 55.2122C153.424 55.2122 153.846 55.3718 154.135 55.6908C154.423 56.0099 154.567 56.401 154.567 56.8642C154.567 57.3274 154.423 57.7133 154.135 58.0221C153.846 58.3309 153.424 58.4853 152.869 58.4853C152.313 58.4853 151.891 58.3309 151.603 58.0221C151.325 57.7133 151.186 57.3274 151.186 56.8642ZM158.18 69.5086C158.18 66.9046 158.782 64.8358 159.986 63.3022C161.19 61.7583 162.785 60.9864 164.772 60.9864C166.81 60.9864 168.4 61.7069 169.543 63.1478L169.682 61.2951H172.291V77.5986C172.291 79.76 171.647 81.4635 170.361 82.7089C169.085 83.9543 167.366 84.577 165.204 84.577C164 84.577 162.822 84.3196 161.669 83.805C160.516 83.2904 159.636 82.5853 159.029 81.6899L160.511 79.9762C161.736 81.4892 163.233 82.2457 165.004 82.2457C166.393 82.2457 167.474 81.8546 168.246 81.0723C169.028 80.2901 169.419 79.1888 169.419 77.7684V76.3326C168.277 77.6501 166.717 78.3088 164.741 78.3088C162.785 78.3088 161.2 77.5214 159.986 75.9466C158.782 74.3719 158.18 72.2259 158.18 69.5086ZM161.051 69.8328C161.051 71.7164 161.437 73.1985 162.209 74.2792C162.981 75.3497 164.062 75.8849 165.451 75.8849C167.252 75.8849 168.575 75.0666 169.419 73.4301V65.8033C168.544 64.2079 167.232 63.4103 165.482 63.4103C164.093 63.4103 163.007 63.9506 162.225 65.0314C161.442 66.1121 161.051 67.7126 161.051 69.8328ZM179.717 78H176.861V61.2951H179.717V78ZM176.629 56.8642C176.629 56.401 176.768 56.0099 177.046 55.6908C177.334 55.3718 177.756 55.2122 178.312 55.2122C178.868 55.2122 179.29 55.3718 179.578 55.6908C179.866 56.0099 180.01 56.401 180.01 56.8642C180.01 57.3274 179.866 57.7133 179.578 58.0221C179.29 58.3309 178.868 58.4853 178.312 58.4853C177.756 58.4853 177.334 58.3309 177.046 58.0221C176.768 57.7133 176.629 57.3274 176.629 56.8642ZM188.177 57.2502V61.2951H191.296V63.5029H188.177V73.8624C188.177 74.5314 188.316 75.0357 188.594 75.3754C188.872 75.7048 189.345 75.8694 190.015 75.8694C190.344 75.8694 190.797 75.8077 191.373 75.6842V78C190.622 78.2059 189.891 78.3088 189.181 78.3088C187.905 78.3088 186.942 77.9228 186.294 77.1509C185.645 76.3789 185.321 75.2828 185.321 73.8624V63.5029H182.28V61.2951H185.321V57.2502H188.177ZM204.959 78C204.795 77.6706 204.661 77.084 204.558 76.24C203.23 77.6192 201.645 78.3088 199.803 78.3088C198.156 78.3088 196.802 77.8456 195.742 76.9193C194.692 75.9827 194.168 74.799 194.168 73.3683C194.168 71.6289 194.826 70.2806 196.144 69.3234C197.471 68.3559 199.334 67.8721 201.733 67.8721H204.512V66.5598C204.512 65.5614 204.213 64.7689 203.616 64.1822C203.019 63.5852 202.139 63.2868 200.976 63.2868C199.957 63.2868 199.103 63.5441 198.413 64.0587C197.724 64.5733 197.379 65.196 197.379 65.9268H194.507C194.507 65.0931 194.801 64.2903 195.387 63.5183C195.984 62.7361 196.787 62.1186 197.796 61.6657C198.815 61.2128 199.931 60.9864 201.146 60.9864C203.071 60.9864 204.579 61.4701 205.67 62.4376C206.761 63.3948 207.327 64.7174 207.368 66.4054V74.094C207.368 75.6276 207.563 76.8472 207.954 77.753V78H204.959ZM200.22 75.8231C201.115 75.8231 201.964 75.5915 202.767 75.1284C203.57 74.6652 204.151 74.0631 204.512 73.322V69.8946H202.273C198.773 69.8946 197.024 70.9187 197.024 72.9669C197.024 73.8624 197.322 74.5623 197.919 75.0666C198.516 75.571 199.283 75.8231 200.22 75.8231ZM214.948 78H212.092V54.2859H214.948V78Z" fill="white"/>
<rect x="3" y="44" width="222" height="1" fill="white"/>
</svg>
